TITLE ""
FILE "Step2_Track52.mp3" MP3
  TRACK 01 AUDIO
    TITLE "Step2_Track52_01"
    INDEX 01 00:00:00
  TRACK 02 AUDIO
    TITLE "Step2_Track52_02"
    INDEX 01 00:00:24
  TRACK 03 AUDIO
    TITLE "Step2_Track52_03"
    INDEX 01 00:02:03
  TRACK 04 AUDIO
    TITLE "Step2_Track52_04"
    INDEX 01 00:02:60
  TRACK 05 AUDIO
    TITLE "Step2_Track52_05"
    INDEX 01 00:03:58
  TRACK 06 AUDIO
    TITLE "Step2_Track52_06"
    INDEX 01 00:04:12
  TRACK 07 AUDIO
    TITLE "Step2_Track52_07"
    INDEX 01 00:06:54
  TRACK 08 AUDIO
    TITLE "Step2_Track52_08"
    INDEX 01 00:07:14
  TRACK 09 AUDIO
    TITLE "Step2_Track52_09"
    INDEX 01 00:08:10
  TRACK 10 AUDIO
    TITLE "Step2_Track52_10"
    INDEX 01 00:08:29
  TRACK 11 AUDIO
    TITLE "Step2_Track52_11"
    INDEX 01 00:10:52
  TRACK 12 AUDIO
    TITLE "Step2_Track52_12"
    INDEX 01 00:11:10
  TRACK 13 AUDIO
    TITLE "Step2_Track52_13"
    INDEX 01 00:12:04
  TRACK 14 AUDIO
    TITLE "Step2_Track52_14"
    INDEX 01 00:12:15
  TRACK 15 AUDIO
    TITLE "Step2_Track52_15"
    INDEX 01 00:14:50
  TRACK 16 AUDIO
    TITLE "Step2_Track52_16"
    INDEX 01 00:14:75
  TRACK 17 AUDIO
    TITLE "Step2_Track52_17"
    INDEX 01 00:15:69
  TRACK 18 AUDIO
    TITLE "Step2_Track52_18"
    INDEX 01 00:16:07
  TRACK 19 AUDIO
    TITLE "Step2_Track52_19"
    INDEX 01 00:18:24
  TRACK 20 AUDIO
    TITLE "Step2_Track52_20"
    INDEX 01 00:18:49
  TRACK 21 AUDIO
    TITLE "Step2_Track52_21"
    INDEX 01 00:19:43
  TRACK 22 AUDIO
    TITLE "Step2_Track52_22"
    INDEX 01 00:19:59
  TRACK 23 AUDIO
    TITLE "Step2_Track52_23"
    INDEX 01 00:23:33
  TRACK 24 AUDIO
    TITLE "Step2_Track52_24"
    INDEX 01 00:23:51
  TRACK 25 AUDIO
    TITLE "Step2_Track52_25"
    INDEX 01 00:24:52
  TRACK 26 AUDIO
    TITLE "Step2_Track52_26"
    INDEX 01 00:24:64
  TRACK 27 AUDIO
    TITLE "Step2_Track52_27"
    INDEX 01 00:27:13
  TRACK 28 AUDIO
    TITLE "Step2_Track52_28"
    INDEX 01 00:27:29
  TRACK 29 AUDIO
    TITLE "Step2_Track52_29"
    INDEX 01 00:28:34
  TRACK 30 AUDIO
    TITLE "Step2_Track52_30"
    INDEX 01 00:28:38
  TRACK 31 AUDIO
    TITLE "Step2_Track52_31"
    INDEX 01 00:30:74
  TRACK 32 AUDIO
    TITLE "Step2_Track52_32"
    INDEX 01 00:31:19
  TRACK 33 AUDIO
    TITLE "Step2_Track52_33"
    INDEX 01 00:32:08
  TRACK 34 AUDIO
    TITLE "Step2_Track52_34"
    INDEX 01 00:32:20
  TRACK 35 AUDIO
    TITLE "Step2_Track52_35"
    INDEX 01 00:34:15
  TRACK 36 AUDIO
    TITLE "Step2_Track52_36"
    INDEX 01 00:34:43
  TRACK 37 AUDIO
    TITLE "Step2_Track52_37"
    INDEX 01 00:35:46
  TRACK 38 AUDIO
    TITLE "Step2_Track52_38"
    INDEX 01 00:35:48
  TRACK 39 AUDIO
    TITLE "Step2_Track52_39"
    INDEX 01 00:37:60
  TRACK 40 AUDIO
    TITLE "Step2_Track52_40"
    INDEX 01 00:38:05
  TRACK 41 AUDIO
    TITLE "Step2_Track52_41"
    INDEX 01 00:39:01
  TRACK 42 AUDIO
    TITLE "Step2_Track52_42"
    INDEX 01 00:39:12
  TRACK 43 AUDIO
    TITLE "Step2_Track52_43"
    INDEX 01 00:41:31
